<?xml version="1.0" standalone="no"?><!DOCTYPE svg PUBLIC "-//W3C//DTD SVG 1.1//EN" "http://www.w3.org/Graphics/SVG/1.1/DTD/svg11.dtd"><svg t="1602503161225" class="icon" viewBox="0 0 1024 1024" version="1.1" xmlns="http://www.w3.org/2000/svg" p-id="981" width="64" height="64" xmlns:xlink="http://www.w3.org/1999/xlink"><defs><style type="text/css"></style></defs><path d="M513.15 641.988c168.465 0 327.328 73.28 435.855 201.055 17.151 20.15 14.863 49.97-5.208 67.902-8.204 7.333-19.016 11.374-30.437 11.374-14.296 0-27.943-6.08-37.444-16.681C784.2 798.782 651.521 737.444 511.991 737.444c-140.53 0-273.215 61.351-364.031 168.317-9.165 10.763-22.292 16.942-36.014 16.942-11.251 0-22.12-4.175-30.606-11.759-10.123-8.6-16.111-20.257-16.981-32.942-0.847-12.384 3.298-24.35 11.671-33.693 110.402-128.613 269.695-202.321 437.12-202.321z m273.223-246.564c-43.766 0-80.734-37.845-80.734-82.638V192.105c0-44.798 36.969-82.646 80.734-82.646 43.763 0 80.734 37.848 80.734 82.646v120.683c0 45.566-36.216 82.636-80.734 82.636z m-547.906 0c-43.761 0-80.731-37.845-80.731-82.638V192.105c0-44.798 36.97-82.646 80.731-82.646 43.771 0 80.746 37.848 80.746 82.646v120.683c0 44.791-36.975 82.636-80.746 82.636z" fill="#ffffff" p-id="982"></path></svg>